<svg xmlns="http://www.w3.org/2000/svg" viewBox="0 0 16.54 10.29"><defs><style>.cls-1{fill:#fff;}</style></defs><title>Recurso 2</title><g id="Capa_2" data-name="Capa 2"><g id="Capa_1-2" data-name="Capa 1"><path class="cls-1" d="M14.94,1.46H10.8v-1h4.15ZM8,5.68a2.72,2.72,0,0,1,.4,1.51A3,3,0,0,1,8,8.83a2.85,2.85,0,0,1-.73.81,2.81,2.81,0,0,1-1.16.52,7.17,7.17,0,0,1-1.45.14H0V0H5A3.16,3.16,0,0,1,7.64,1.1a2.62,2.62,0,0,1,.47,1.57,2.29,2.29,0,0,1-.48,1.52,2.42,2.42,0,0,1-.78.59A2.29,2.29,0,0,1,8,5.68ZM2.37,4.06H4.55A2.06,2.06,0,0,0,5.64,3.8a1,1,0,0,0,.42-.9.92.92,0,0,0-.55-.95,3.9,3.9,0,0,0-1.21-.16H2.37ZM6.27,7a1.1,1.1,0,0,0-.65-1.1,2.59,2.59,0,0,0-1-.18H2.37V8.51H4.55a2.41,2.41,0,0,0,1-.18A1.3,1.3,0,0,0,6.27,7ZM16.48,5.37a9.67,9.67,0,0,1,.06,1.46H11.17a1.76,1.76,0,0,0,.77,1.56A1.94,1.94,0,0,0,13,8.66a1.5,1.5,0,0,0,1.47-.84h2a2.4,2.4,0,0,1-.71,1.33A3.58,3.58,0,0,1,13,10.23a4,4,0,0,1-2.6-.91,3.58,3.58,0,0,1-1.12-3,4,4,0,0,1,1-2.94,3.56,3.56,0,0,1,2.64-1,4.2,4.2,0,0,1,1.73.34,3,3,0,0,1,1.27,1.09,3.64,3.64,0,0,1,.59,1.53Zm-1.94.19A1.61,1.61,0,0,0,14,4.39,1.68,1.68,0,0,0,12.88,4a1.53,1.53,0,0,0-1.15.42,2,2,0,0,0-.51,1.14Zm0,0"/></g></g></svg>