<svg xmlns="http://www.w3.org/2000/svg" viewBox="0 0 10.56 10.3"><defs><style>.cls-1{fill:#fff;fill-rule:evenodd;}</style></defs><title>Recurso 3</title><g id="Capa_2" data-name="Capa 2"><g id="Capa_1-2" data-name="Capa 1"><path class="cls-1" d="M5.28,0A5.28,5.28,0,0,0,3.61,10.29c.26,0,.36-.11.36-.25s0-.46,0-.9c-1.47.32-1.78-.71-1.78-.71a1.4,1.4,0,0,0-.59-.77c-.48-.33,0-.32,0-.32a1.11,1.11,0,0,1,.81.54A1.12,1.12,0,0,0,4,8.32a1.13,1.13,0,0,1,.34-.71A2.34,2.34,0,0,1,1.91,5a2,2,0,0,1,.54-1.42,1.9,1.9,0,0,1,.05-1.4S2.95,2,4,2.73a5,5,0,0,1,2.64,0C7.61,2,8,2.19,8,2.19a1.9,1.9,0,0,1,.05,1.4A2,2,0,0,1,8.64,5a2.33,2.33,0,0,1-2.41,2.6,1.26,1.26,0,0,1,.36,1c0,.71,0,1.27,0,1.45s.1.31.36.25A5.28,5.28,0,0,0,5.28,0Z"/></g></g></svg>