<svg xmlns="http://www.w3.org/2000/svg" viewBox="0 0 40 38.22"><defs><style>.cls-1{fill:#f1f2f2;}</style></defs><title>Recurso 1</title><g id="Capa_2" data-name="Capa 2"><g id="Social-Media"><g id="linkedin"><path class="cls-1" d="M40,23.43V38.22H31.43V24.42c0-3.47-1.24-5.83-4.34-5.83a4.69,4.69,0,0,0-4.4,3.14,5.87,5.87,0,0,0-.28,2.09v14.4H13.82s.12-23.37,0-25.79H22.4v3.65l-.06.08h.06v-.08a8.51,8.51,0,0,1,7.73-4.26c5.64,0,9.87,3.69,9.87,11.61ZM4.85,0C1.92,0,0,1.93,0,4.46A4.44,4.44,0,0,0,4.74,8.91H4.8c3,0,4.85-2,4.85-4.46A4.46,4.46,0,0,0,4.85,0ZM.51,38.22H9.08V12.43H.51Zm0,0"/></g></g></g></svg>